{
    "streams": [
        {
            "index": 0,
            "codec_name": "h264",
            "codec_long_name": "H.264 / AVC / MPEG-4 AVC / MPEG-4 part 10",
            "profile": "High",
            "codec_type": "video",
            "codec_tag_string": "[27][0][0][0]",
            "codec_tag": "0x001b",
            "width": 1920,
            "height": 1080,
            "coded_width": 1920,
            "coded_height": 1080,
            "closed_captions": 0,
            "film_grain": 0,
            "has_b_frames": 3,
            "sample_aspect_ratio": "1:1",
            "display_aspect_ratio": "16:9",
            "pix_fmt": "yuv420p",
            "level": 40,
            "color_range": "tv",
            "color_space": "bt709",
            "color_transfer": "bt709",
            "color_primaries": "bt709",
            "chroma_location": "left",
            "field_order": "tt",
            "refs": 1,
            "is_avc": "false",
            "nal_length_size": "0",
            "ts_id": "1",
            "ts_packetsize": "188",
            "id": "0x100",
            "r_frame_rate": "50/1",
            "avg_frame_rate": "25/1",
            "time_base": "1/90000",
            "start_pts": 297660,
            "start_time": "3.307333",
            "duration_ts": 321121800,
            "duration": "3568.020000",
            "bits_per_raw_sample": "8",
            "extradata_size": 52,
            "disposition": {
                "default": 0,
                "dub": 0,
                "original": 0,
                "comment": 0,
                "lyrics": 0,
                "karaoke": 0,
                "forced": 0,
                "hearing_impaired": 0,
                "visual_impaired": 0,
                "clean_effects": 0,
                "attached_pic": 0,
                "timed_thumbnails": 0,
                "non_diegetic": 0,
                "captions": 0,
                "descriptions": 0,
                "metadata": 0,
                "dependent": 0,
                "still_image": 0,
                "multilayer": 0
            }
        },
        {
            "index": 1,
            "codec_name": "aac_latm",
            "codec_long_name": "AAC LATM (Advanced Audio Coding LATM syntax)",
            "profile": "LC",
            "codec_type": "audio",
            "codec_tag_string": "[17][0][0][0]",
            "codec_tag": "0x0011",
            "sample_fmt": "fltp",
            "sample_rate": "48000",
            "channels": 2,
            "channel_layout": "stereo",
            "bits_per_sample": 0,
            "initial_padding": 0,
            "ts_id": "1",
            "ts_packetsize": "188",
            "id": "0x101",
            "r_frame_rate": "0/0",
            "avg_frame_rate": "0/0",
            "time_base": "1/90000",
            "start_pts": 126000,
            "start_time": "1.400000",
            "duration_ts": 321192960,
            "duration": "3568.810667",
            "extradata_size": 2,
            "disposition": {
                "default": 0,
                "dub": 0,
                "original": 0,
                "comment": 0,
                "lyrics": 0,
                "karaoke": 0,
                "forced": 0,
                "hearing_impaired": 0,
                "visual_impaired": 0,
                "clean_effects": 0,
                "attached_pic": 0,
                "timed_thumbnails": 0,
                "non_diegetic": 0,
                "captions": 0,
                "descriptions": 0,
                "metadata": 0,
                "dependent": 0,
                "still_image": 0,
                "multilayer": 0
            },
            "tags": {
                "language": "eng"
            }
        },
        {
            "index": 2,
            "codec_name": "dvb_subtitle",
            "codec_long_name": "DVB subtitles",
            "codec_type": "subtitle",
            "codec_tag_string": "[6][0][0][0]",
            "codec_tag": "0x0006",
            "ts_id": "1",
            "ts_packetsize": "188",
            "id": "0x102",
            "r_frame_rate": "0/0",
            "avg_frame_rate": "0/0",
            "time_base": "1/90000",
            "start_pts": 126000,
            "start_time": "1.400000",
            "duration_ts": 321293460,
            "duration": "3569.927333",
            "extradata_size": 5,
            "disposition": {
                "default": 0,
                "dub": 0,
                "original": 0,
                "comment": 0,
                "lyrics": 0,
                "karaoke": 0,
                "forced": 0,
                "hearing_impaired": 0,
                "visual_impaired": 0,
                "clean_effects": 0,
                "attached_pic": 0,
                "timed_thumbnails": 0,
                "non_diegetic": 0,
                "captions": 0,
                "descriptions": 0,
                "metadata": 0,
                "dependent": 0,
                "still_image": 0,
                "multilayer": 0
            },
            "tags": {
                "language": "eng"
            }
        }
    ]
}